<?xml version="1.0" encoding="UTF-8" standalone="no"?>
<!-- Created with Inkscape (http://www.inkscape.org/) -->

<svg
   width="210mm"
   height="297mm"
   viewBox="0 0 210 297"
   version="1.1"
   id="svg5"
   xml:space="preserve"
   inkscape:version="1.2.2 (732a01da63, 2022-12-09)"
   sodipodi:docname="Phantom Solids.svg"
   xmlns:inkscape="http://www.inkscape.org/namespaces/inkscape"
   xmlns:sodipodi="http://sodipodi.sourceforge.net/DTD/sodipodi-0.dtd"
   xmlns="http://www.w3.org/2000/svg"
   xmlns:svg="http://www.w3.org/2000/svg"><sodipodi:namedview
     id="namedview7"
     pagecolor="#ffffff"
     bordercolor="#000000"
     borderopacity="0.25"
     inkscape:showpageshadow="2"
     inkscape:pageopacity="0.0"
     inkscape:pagecheckerboard="0"
     inkscape:deskcolor="#d1d1d1"
     inkscape:document-units="mm"
     showgrid="false"
     showguides="false"
     inkscape:zoom="0.82854652"
     inkscape:cx="294.49161"
     inkscape:cy="592.60402"
     inkscape:window-width="1920"
     inkscape:window-height="1009"
     inkscape:window-x="-8"
     inkscape:window-y="-8"
     inkscape:window-maximized="1"
     inkscape:current-layer="layer1"><sodipodi:guide
       position="107.99169,61.549288"
       orientation="0,-1"
       id="guide1912"
       inkscape:locked="false" /><sodipodi:guide
       position="127.81561,61.549288"
       orientation="0,-1"
       id="guide1916"
       inkscape:locked="false" /><sodipodi:guide
       position="127.81561,73.381807"
       orientation="0,-1"
       id="guide1918"
       inkscape:locked="false" /><sodipodi:guide
       position="101.09606,82.592952"
       orientation="0,-1"
       id="guide4468"
       inkscape:locked="false" /><sodipodi:guide
       position="94.261055,52.338133"
       orientation="0,-1"
       id="guide4472"
       inkscape:locked="false" /></sodipodi:namedview><defs
     id="defs2" /><g
     inkscape:label="Layer 1"
     inkscape:groupmode="layer"
     id="layer1"><rect
       style="fill:#ffffff;fill-opacity:1;stroke:none;stroke-width:13;stroke-linecap:round;paint-order:stroke fill markers"
       id="rect10686"
       width="150.08713"
       height="216.18932"
       x="32.875092"
       y="40.405342"
       inkscape:export-filename="rect10686.png"
       inkscape:export-xdpi="182.77383"
       inkscape:export-ydpi="182.77383" /><path
       id="path234"
       style="fill:#000000;fill-opacity:1;stroke-width:6.27938;stroke-linecap:round"
       d="m -126.61971,139.69773 c 0.25333,16.746 -16.15309,29.58507 -53.56598,40.64639 -10.6403,3.14586 -10.76516,7.96253 -6.58851,9.05217 6.35137,1.65701 21.56588,4.50326 21.71768,10.62613 0.14355,5.78976 -11.78799,11.05564 -17.06924,13.26624 -6.63774,2.77838 -31.55722,15.04243 -32.95956,12.69702 -1.34612,-2.25135 2.72717,-3.60386 8.91325,-6.51138 13.24549,-6.22552 17.3657,-12.37877 17.41927,-13.73347 0.12176,-3.07899 -2.66813,-4.8064 -9.24923,-6.06586 -6.85636,-1.31213 -16.01612,-3.08742 -18.98108,-11.70206 -5.21627,-15.15581 0.22949,-22.12512 2.23121,-28.76876 4.05329,-13.4527 28.41469,-48.49961 56.3526,-47.99295 17.54849,0.31824 31.54162,12.75565 31.77959,28.48653 z"
       sodipodi:nodetypes="sssssssssssss" /><g
       id="g16047"
       transform="translate(-256.8768,19.759754)"><path
         id="path234-7"
         style="fill:#ffffff;fill-opacity:0.987245;stroke:#102847;stroke-width:13;stroke-linecap:round;stroke-dasharray:none;stroke-opacity:1;paint-order:stroke fill markers"
         d="m 168.10652,115.59266 c 0.25333,16.746 -16.15309,29.58507 -53.56598,40.64639 -10.6403,3.14586 -10.76516,7.96253 -6.58851,9.05217 6.35137,1.65701 21.56588,4.50326 21.71768,10.62613 0.14355,5.78976 -11.78799,11.05565 -17.06924,13.26624 -3.94764,1.65238 -14.556711,6.89545 -22.686381,10.24031 -5.53991,2.27934 -9.54443,4.20206 -10.27319,2.45671 -0.72876,-1.74535 2.72718,-3.60386 8.91326,-6.51138 13.245491,-6.22552 17.302371,-10.79546 17.419271,-13.73347 0.12251,-3.07896 -1.40148,-4.10974 -9.249231,-6.06586 -15.01663,-3.73689 -21.65024,-16.78815 -21.32505,-25.10975 0.32519,-8.3216 2.81014,-13.62322 5.64997,-18.67501 2.84588,-5.06254 27.339901,-45.185663 55.277811,-44.67901 17.54849,0.318242 31.54162,12.755649 31.77959,28.48653 z"
         sodipodi:nodetypes="sssssszssczsss" /><path
         id="path11297"
         style="fill:#102847;fill-opacity:1;stroke-width:13;stroke-linecap:round;stroke-opacity:0.209184;paint-order:stroke fill markers"
         d="m 161.2061,120.40434 c -1.66461,4.93867 -7.24764,14.28943 -10.74713,12.03585 -1.17111,-0.75417 0.49073,-1.90963 0.27864,-11.78872 -0.10293,-4.79446 -1.52857,-11.88036 4.72817,-13.01737 6.64958,-1.20843 7.54986,7.40153 5.74032,12.77024 z"
         sodipodi:nodetypes="scsss" /><path
         id="path11297-2"
         style="fill:#102847;fill-opacity:1;stroke-width:13.4185;stroke-linecap:round;stroke-opacity:0.209184;paint-order:stroke fill markers"
         d="m 141.77044,124.21102 c -3.93379,9.86683 -9.49962,12.84451 -11.76744,12.05976 -2.26782,-0.78475 -4.67991,-7.97131 -4.67991,-13.52389 0,-5.55259 2.38051,-16.49321 11.2125,-15.12012 6.74582,1.04875 7.76548,10.23689 5.23486,16.58425 z"
         sodipodi:nodetypes="szssss" /></g><path
       id="path234-7-5"
       style="fill:#ffffff;fill-opacity:1;stroke:#2c2c2c;stroke-width:13;stroke-linecap:round;stroke-dasharray:none;stroke-opacity:1;paint-order:stroke fill markers"
       d="m 154.27761,90.839821 c 0.25333,16.745999 -16.15309,29.585069 -53.56598,40.646389 -10.640295,3.14586 -10.765155,7.96253 -6.588505,9.05217 6.351365,1.65701 21.565875,4.50326 21.717685,10.62613 0.14355,5.78976 -11.788,11.05565 -17.069245,13.26624 -3.94764,1.65238 -14.556711,6.89545 -22.686381,10.24031 -5.53991,2.27934 -9.54443,4.20206 -10.27319,2.45671 -0.72876,-1.74535 2.72718,-3.60386 8.91326,-6.51138 13.245491,-6.22552 17.302371,-10.79546 17.419271,-13.73347 0.12251,-3.07896 -1.40148,-4.10974 -9.249231,-6.06586 -15.01663,-3.73689 -21.65024,-16.78815 -21.32505,-25.10975 0.32519,-8.3216 2.81014,-13.62322 5.64997,-18.67501 2.84588,-5.06254 27.339901,-45.185662 55.277806,-44.679009 17.5485,0.318242 31.54162,12.755649 31.77959,28.48653 z"
       sodipodi:nodetypes="sssssszssczsss" /><path
       id="path11297-8"
       style="fill:#2c2c2c;fill-opacity:1;stroke-width:13;stroke-linecap:round;stroke-opacity:0.209184;paint-order:stroke fill markers"
       d="m 147.37719,95.651501 c -1.66461,4.938669 -7.24764,14.289429 -10.74713,12.035849 -1.17111,-0.75417 0.49074,-1.90963 0.27864,-11.788719 -0.10293,-4.79446 -1.52857,-11.88036 4.72817,-13.01737 6.64959,-1.20843 7.54986,7.40153 5.74032,12.77024 z"
       sodipodi:nodetypes="scsss" /><path
       id="path11297-2-5"
       style="fill:#2c2c2c;fill-opacity:1;stroke-width:13.4185;stroke-linecap:round;stroke-opacity:0.209184;paint-order:stroke fill markers"
       d="m 127.94154,99.458181 c -3.93379,9.866829 -9.49962,12.844509 -11.76744,12.059759 -2.26782,-0.78475 -3.24686,-7.83696 -3.24686,-13.38954 0,-5.55259 0.94746,-16.627559 9.77945,-15.254469 6.74582,1.04875 7.76548,10.23689 5.23486,16.58425 z"
       sodipodi:nodetypes="szssss" /><g
       aria-label="PHANTOM "
       transform="scale(1.3592805,0.73568332)"
       id="text452-4"
       style="font-size:33.1819px;font-family:Steelfish;-inkscape-font-specification:'Steelfish, Normal';fill:#2c2c2c;stroke-width:17.6707;stroke-linecap:round;paint-order:stroke fill markers"><path
         d="m 43.115698,286.52563 v -12.97412 h 0.829548 c 3.31819,0 4.778193,-1.46 4.778193,-7.15069 0,-5.6907 -1.493185,-7.18389 -4.811375,-7.18389 h -4.413193 v 27.3087 z"
         style="text-align:center;text-anchor:middle"
         id="path1390"
         sodipodi:nodetypes="ccscsccc" /><path
         d="m 59.142581,286.52563 v -27.3087 h -3.583645 l -1e-6,8.3142 H 53.89984 l 1e-6,-8.3142 h -3.616827 v 27.3087 h 3.616827 l -1e-6,-8.31421 h 1.659095 l 1e-6,8.31421 z"
         style="text-align:center;text-anchor:middle"
         id="path1392"
         sodipodi:nodetypes="ccccccccccccc" /><path
         d="m 71.187579,286.52563 -3.119099,-27.3087 h -4.180919 l -3.31819,27.3087 h 3.4841 l 1.758638,-8.29547 1.758643,8.29547 z"
         style="text-align:center;text-anchor:middle"
         id="path1394"
         sodipodi:nodetypes="cccccccc" /><path
         d="m 82.303539,286.52563 v -27.3087 h -3.019553 c 0.07018,4.5222 -0.08654,5.6955 3e-6,8.3142 -2.555005,-8.3142 0,0 -2.555005,-8.3142 h -4.147737 v 27.3087 h 3.019552 c -2e-6,-8.29547 -2e-6,0 -2e-6,-8.29547 l 3.251824,8.29547 z"
         style="text-align:center;text-anchor:middle"
         id="path1396"
         sodipodi:nodetypes="ccccccccccc" /><path
         d="m 89.935389,286.52563 0.0073,-18.9945 h 2.62137 l -0.0073,-8.3142 H 83.66401 l 0.0073,8.3142 h 2.654552 l -0.0073,18.9945 z"
         style="text-align:center;text-anchor:middle"
         id="path1398"
         sodipodi:nodetypes="ccccccccc" /><path
         d="m 93.319921,282.17881 c 0,3.08591 1.493186,4.34682 4.446375,4.34682 2.953194,0 4.446374,-1.26091 4.446374,-4.34682 v -18.61505 c 0,-3.08592 -1.49318,-4.34683 -4.446374,-4.34683 -2.953189,0 -4.446375,1.26091 -4.446375,4.34683 z"
         style="text-align:center;text-anchor:middle"
         id="path1400"
         sodipodi:nodetypes="sssssss" /><path
         d="m 117.27723,286.52563 v -27.3087 h -4.84455 l -1.75864,8.3142 -1.69228,-8.3142 h -4.7782 v 27.3087 h 3.28501 c -10e-6,-8.29547 -10e-6,0 -10e-6,-8.29547 l 1.91026,8.2827 2.61678,0.0255 1.97663,-8.30824 v 8.29547 z"
         style="text-align:center;text-anchor:middle"
         id="path1402"
         sodipodi:nodetypes="cccccccccccccc" /></g><g
       aria-label="SOLIDS"
       transform="scale(1.3060466,0.76566949)"
       id="text1268-1"
       style="font-size:48.0124px;font-family:Steelfish;-inkscape-font-specification:'Steelfish, Normal';text-align:center;text-anchor:middle;fill:#2c2c2c;stroke-width:25.5685;stroke-linecap:round;paint-order:stroke fill markers"><path
         d="M 46.102119,307.50959 H 41.10883 l 1e-6,5.93263 c 10e-7,4.22509 1.968507,6.09757 6.385648,6.09757 4.465153,0 6.1936,-1.87248 6.1936,-6.09757 v -5.66546 c 0,-3.40888 -0.672173,-5.37739 -3.504904,-9.12236 -2.928757,-3.79298 -4.081052,-4.58211 -4.081056,-6.59863 0,-2.39892 2.78472,-2.42986 2.78472,0 h 4.80124 l 10e-7,-5.98062 c 10e-7,-4.41714 -1.728448,-6.04956 -6.193601,-6.04956 -4.273104,0 -6.385648,1.72844 -6.385648,6.04956 v 5.90553 c 0,3.31285 1.248322,5.61745 3.696955,8.83428 3.168818,4.08105 4.081052,4.6301 4.081053,6.69463 0,2.07607 -2.78472,1.96732 -2.78472,0 z"
         id="path1893"
         sodipodi:nodetypes="ccssssccccssssccc" /><path
         d="m 114.32771,307.50959 h -4.99329 v 5.93262 c 0,4.2251 1.9685,6.09758 6.38565,6.09758 4.46515,0 6.1936,-1.87248 6.1936,-6.09758 v -5.66545 c 0,-3.40888 -0.67217,-5.37739 -3.50491,-9.12237 -2.92876,-3.79298 -4.08105,-4.5821 -4.08105,-6.59863 0,-2.39891 2.78471,-2.42985 2.78471,0 h 4.80125 v -5.98062 c 0,-4.41714 -1.72845,-6.04955 -6.1936,-6.04955 -4.27311,0 -6.38565,1.72843 -6.38565,6.04955 v 5.90555 c 0,3.31283 1.24832,5.61744 3.69696,8.83426 3.16881,4.08106 4.08104,4.63011 4.08104,6.69464 0,2.07606 -2.78471,1.96732 -2.78471,0 z"
         id="path1893-8"
         sodipodi:nodetypes="ccssssccccssssccc"
         style="font-size:48.0124px;font-family:Steelfish;-inkscape-font-specification:'Steelfish, Normal';text-align:center;text-anchor:middle;fill:#2c2c2c;fill-opacity:1;stroke-width:25.5685;stroke-linecap:round;paint-order:stroke fill markers" /><path
         d="m 56.328749,313.25017 c 0,4.46515 2.160558,6.28962 6.433661,6.28962 4.273104,0 6.433662,-1.82447 6.433662,-6.28962 v -26.93496 c 0,-4.46515 -2.160558,-6.28962 -6.433662,-6.28962 -4.273103,0 -6.433661,1.82447 -6.433661,6.28962 z m 7.63397,-5.74058 c -10e-7,2.1331 -2.40062,2.06393 -2.40062,0 v -15.45382 c 0,-1.98564 2.400619,-1.9902 2.40062,0 z"
         id="path1895"
         sodipodi:nodetypes="sssssssccccc" /><path
         d="m 83.263678,319.53979 -3e-6,-12.0302 h -5.857513 l 3e-6,-27.484 h -5.233352 v 39.5142 z"
         id="path1897"
         sodipodi:nodetypes="ccccccc" /><path
         d="m 90.657597,319.53979 v -39.5142 h -5.233352 v 39.5142 z"
         id="path1899" /><path
         d="m 101.65242,306.02121 c 0,1.00826 -0.43211,1.48838 -1.24832,1.48838 h -1.152297 v -15.45382 h 1.152297 c 0.81621,0 1.24832,0.48012 1.24832,1.48838 z m -1.24832,13.51858 c 4.2731,0 6.43366,-2.25658 6.43366,-6.72173 v -26.02272 c 0,-4.22509 -2.16056,-6.76975 -6.43366,-6.76975 h -6.385649 v 39.5142 z"
         id="path1901"
         sodipodi:nodetypes="ssccsssssssccs" /></g><text
       xml:space="preserve"
       style="font-style:normal;font-variant:normal;font-weight:normal;font-stretch:normal;font-size:33.1819px;font-family:Steelfish;-inkscape-font-specification:'Steelfish, Normal';font-variant-ligatures:normal;font-variant-caps:normal;font-variant-numeric:normal;font-variant-east-asian:normal;fill:#2c2c2c;fill-opacity:1;stroke:none;stroke-width:17.6707;stroke-linecap:round;paint-order:stroke fill markers"
       x="77.824112"
       y="389.26196"
       id="text452-4-1"
       transform="scale(1.3592805,0.73568332)"><tspan
         sodipodi:role="line"
         style="font-style:normal;font-variant:normal;font-weight:normal;font-stretch:normal;font-size:33.1819px;font-family:Steelfish;-inkscape-font-specification:'Steelfish, Normal';font-variant-ligatures:normal;font-variant-caps:normal;font-variant-numeric:normal;font-variant-east-asian:normal;text-align:center;text-anchor:middle;fill:#2c2c2c;fill-opacity:1;stroke:none;stroke-width:17.6707"
         x="80.080475"
         y="389.26196"
         id="tspan1262-5-6">PHANTOM </tspan></text><text
       xml:space="preserve"
       style="font-size:48.0124px;font-family:Steelfish;-inkscape-font-specification:'Steelfish, Normal';text-align:center;text-anchor:middle;fill:#2c2c2c;fill-opacity:1;stroke:none;stroke-width:25.5685;stroke-linecap:round;paint-order:stroke fill markers"
       x="81.030876"
       y="418.25262"
       id="text1268-1-3"
       transform="scale(1.3060466,0.76566947)"><tspan
         sodipodi:role="line"
         id="tspan1266-9-1"
         style="stroke-width:25.5685"
         x="81.030876"
         y="418.25262">SOLIDS</tspan></text><path
       id="rect1531-1"
       style="fill:#9ff609;stroke-width:9.42162;stroke-linecap:round;paint-order:stroke fill markers;fill-opacity:1"
       transform="matrix(2.1578736e-4,-0.99999998,0.99994471,0.01051544,0,0)"
       d="m -203.2916,131.79082 7.85925,0 c 1.46662,-0.008 1.45789,2.31708 0,2.30278 h -7.85925 c -1.54437,-0.0599 -1.50312,-2.30802 0,-2.30278 z"
       sodipodi:nodetypes="ccccc" /></g></svg>
